<?xml version="1.0" standalone="no"?>
<!DOCTYPE svg PUBLIC "-//W3C//DTD SVG 20010904//EN"
 "http://www.w3.org/TR/2001/REC-SVG-20010904/DTD/svg10.dtd">
<svg version="1.0" xmlns="http://www.w3.org/2000/svg"
 width="700.000000pt" height="700.000000pt" viewBox="0 0 700.000000 700.000000"
 preserveAspectRatio="xMidYMid meet">
<metadata>
Created by potrace 1.11, written by Peter Selinger 2001-2013
</metadata>
<g transform="translate(0.000000,700.000000) scale(0.100000,-0.100000)"
fill="#000000" stroke="none">
<path d="M3119 6996 c-2 -2 -31 -6 -64 -10 -59 -6 -152 -20 -210 -31 -16 -3
-39 -8 -50 -10 -403 -76 -843 -255 -1205 -490 -81 -52 -216 -148 -270 -192
-50 -40 -159 -132 -184 -155 -16 -16 -32 -28 -35 -29 -3 -1 -184 -2 -401 -4
-217 -1 -406 -5 -418 -8 -41 -11 -110 -56 -132 -86 -52 -75 -51 -47 -51 -839
0 -700 -1 -741 -20 -827 -25 -111 -46 -224 -55 -290 -3 -27 -9 -59 -12 -70 -3
-11 -7 -193 -8 -405 -3 -395 1 -456 41 -677 71 -387 219 -787 418 -1128 215
-370 524 -720 867 -986 58 -44 113 -87 123 -95 9 -8 21 -14 26 -14 5 0 11 -3
13 -8 10 -24 349 -224 503 -297 280 -132 660 -249 935 -289 19 -2 58 -8 85
-12 28 -3 59 -8 70 -10 96 -18 492 -24 670 -11 674 51 1315 296 1855 711 582
446 991 1027 1214 1721 40 125 94 350 112 465 2 19 7 46 9 60 3 14 7 47 11 75
3 27 8 61 9 75 23 178 23 696 0 780 -2 8 -7 37 -10 64 -4 43 -19 133 -41 251
-3 17 -12 57 -21 90 -15 53 -17 149 -18 816 l-1 756 -23 44 c-31 59 -65 94
-120 121 -45 22 -53 22 -452 23 l-406 1 -99 86 c-182 157 -432 330 -609 423
l-60 31 -96 190 c-58 112 -103 190 -113 192 -9 2 -85 -31 -170 -72 -84 -42
-159 -76 -166 -76 -6 0 -58 13 -114 30 -88 25 -152 41 -266 64 -239 48 -319
54 -701 55 -196 0 -358 -1 -360 -3z"/>
</g>
</svg>
